<svg xmlns="http://www.w3.org/2000/svg" width="19.508" height="19.517" viewBox="0 0 19.508 19.517"><defs><style>.a{fill:#fff;}</style></defs><path class="a" d="M229.979,556.967c0-.021,0-.042,0-.063s0-.042,0-.063v-.13h-.022a.855.855,0,0,0-1.644,0h-.025v2.053h0a.85.85,0,0,0,1.687,0h0v-.007c0-.021,0-.042,0-.063s0-.042,0-.063Z" transform="translate(-224.282 -556.092)"/><ellipse class="a" cx="1.164" cy="1.116" rx="1.164" ry="1.116" transform="translate(15.214 5.482)"/><ellipse class="a" cx="1.164" cy="1.116" rx="1.164" ry="1.116" transform="translate(15.214 8.83)"/><ellipse class="a" cx="1.164" cy="1.116" rx="1.164" ry="1.116" transform="translate(15.214 12.178)"/><ellipse class="a" cx="1.164" cy="1.116" rx="1.164" ry="1.116" transform="translate(11.866 5.482)"/><ellipse class="a" cx="1.164" cy="1.116" rx="1.164" ry="1.116" transform="translate(11.866 8.83)"/><ellipse class="a" cx="1.164" cy="1.116" rx="1.164" ry="1.116" transform="translate(11.866 12.178)"/><ellipse class="a" cx="1.164" cy="1.116" rx="1.164" ry="1.116" transform="translate(8.557 5.482)"/><ellipse class="a" cx="1.164" cy="1.116" rx="1.164" ry="1.116" transform="translate(8.557 8.83)"/><ellipse class="a" cx="1.164" cy="1.116" rx="1.164" ry="1.116" transform="translate(8.557 12.178)"/><ellipse class="a" cx="1.164" cy="1.116" rx="1.164" ry="1.116" transform="translate(5.248 5.482)"/><ellipse class="a" cx="1.164" cy="1.116" rx="1.164" ry="1.116" transform="translate(5.248 8.83)"/><ellipse class="a" cx="1.164" cy="1.116" rx="1.164" ry="1.116" transform="translate(5.248 12.178)"/><ellipse class="a" cx="1.164" cy="1.116" rx="1.164" ry="1.116" transform="translate(1.94 5.482)"/><ellipse class="a" cx="1.164" cy="1.116" rx="1.164" ry="1.116" transform="translate(1.94 8.83)"/><ellipse class="a" cx="1.164" cy="1.116" rx="1.164" ry="1.116" transform="translate(1.94 12.178)"/><ellipse class="a" cx="1.164" cy="1.116" rx="1.164" ry="1.116" transform="translate(8.557 15.526)"/><ellipse class="a" cx="1.164" cy="1.116" rx="1.164" ry="1.116" transform="translate(5.248 15.526)"/><ellipse class="a" cx="1.164" cy="1.116" rx="1.164" ry="1.116" transform="translate(1.94 15.526)"/><path class="a" d="M394.354,558.632v-1.665c0-.021,0-.042,0-.063s0-.042,0-.063v-.13h-.022a.855.855,0,0,0-1.644,0h-.025v2.053h0a.85.85,0,0,0,1.687,0h0v-.007c0-.021,0-.042,0-.063S394.356,558.653,394.354,558.632Z" transform="translate(-378.946 -556.092)"/><path class="a" d="M178.713,583.882h-2.422v1.1a1.341,1.341,0,0,1-1.242,1.092,1.305,1.305,0,0,1-1.219-1.092v-1.1H166.5v1.189a1.091,1.091,0,0,1-1.164,1c-1.105,0-1.258-1.26-1.258-1.26v-.933H162.21a1.692,1.692,0,0,0-1.721,1.9v14.278s0,.055,0,.144v.014h0a1.707,1.707,0,0,0,.362,1.083,1.839,1.839,0,0,0,1.136.45v.007h.114c.11,0,.178,0,.178,0h15.905s.068,0,.178,0h.152v-.01a1.812,1.812,0,0,0,1.1-.447,1.707,1.707,0,0,0,.362-1.083h.02V585.625C179.993,583.919,178.713,583.882,178.713,583.882Zm.366,16.176h-.019a1.143,1.143,0,0,1-.122.618.7.7,0,0,1-.471.166H162a.7.7,0,0,1-.471-.166.838.838,0,0,1-.122-.461v-13.4h17.673v.51h0Z" transform="translate(-160.486 -582.24)"/></svg>