<svg xmlns="http://www.w3.org/2000/svg" xmlns:xlink="http://www.w3.org/1999/xlink" width="459.987" height="106.003" viewBox="0 0 459.987 106.003"><defs><style>.a,.c{fill:#9fc5e9;}.a,.b{font-size:38px;}.a{font-family:SavoyeLetPlain, Savoye LET;}.b,.i{fill:#2e90d1;}.b{font-family:Quantify;}.d{fill:none;}.e{fill:#1e58a5;}.f{fill:#3391d1;}.g{fill:#fefefe;}.h{fill:url(#a);}.j{fill:url(#b);}.k{fill:url(#c);}.l{fill:url(#d);}</style><linearGradient id="a" y1="0.5" x2="1" y2="0.5" gradientUnits="objectBoundingBox"><stop offset="0.126" stop-color="#0b3f91"/><stop offset="0.298" stop-color="#185eaa"/><stop offset="0.481" stop-color="#2479bf"/><stop offset="0.644" stop-color="#2b8acc"/><stop offset="0.769" stop-color="#2e90d1"/></linearGradient><linearGradient id="b" x1="-0.159" y1="0.5" x2="1.093" y2="0.5" gradientUnits="objectBoundingBox"><stop offset="0.326" stop-color="#0b3f91"/><stop offset="0.424" stop-color="#185eaa"/><stop offset="0.53" stop-color="#2479bf"/><stop offset="0.623" stop-color="#2b8acc"/><stop offset="0.695" stop-color="#2e90d1"/></linearGradient><linearGradient id="c" x1="1.236" y1="0.5" x2="-0.089" y2="0.5" gradientUnits="objectBoundingBox"><stop offset="0.223" stop-color="#0b3f91"/><stop offset="0.294" stop-color="#1352a0"/><stop offset="0.433" stop-color="#2174ba"/><stop offset="0.549" stop-color="#2a88cb"/><stop offset="0.626" stop-color="#2e90d1"/></linearGradient><linearGradient id="d" x1="1.253" y1="0.5" x2="-0.058" y2="0.5" gradientUnits="objectBoundingBox"><stop offset="0.188" stop-color="#0b3f91"/><stop offset="0.299" stop-color="#185eaa"/><stop offset="0.418" stop-color="#2479bf"/><stop offset="0.523" stop-color="#2b8acc"/><stop offset="0.603" stop-color="#2e90d1"/></linearGradient></defs><g transform="translate(-5.958 -3.896)"><text class="a" transform="translate(315.946 90.899)"><tspan x="0" y="0">Viaja protegido</tspan></text><text class="b" transform="translate(141.59 67.705)"><tspan x="0" y="0">Seguro</tspan><tspan class="c" y="0">de</tspan><tspan y="0">viaje</tspan><tspan class="c" y="0">.pe</tspan></text><g transform="translate(5.958 3.896)"><path class="d" d="M121.975,21.842c-.316.042-.63.094-.945.14h0C121.348,21.935,121.661,21.884,121.975,21.842Z" transform="translate(-54.643 -11.489)"/><path class="d" d="M114.943,22.093c-2.76.4-5.5.937-8.219,1.585,2.721-.648,5.458-1.183,8.218-1.585Z" transform="translate(-48.591 -11.595)"/><path class="e" d="M104.611,23.678q-1.141.273-2.279.568a1.867,1.867,0,0,0-.6.262,83.122,83.122,0,0,1,11.1-2.415C110.069,22.5,107.331,23.03,104.611,23.678Z" transform="translate(-46.477 -11.595)"/><path class="e" d="M122.179,21.8c-.066.009-.133.014-.2.024-.314.042-.627.093-.94.139C121.411,21.908,121.793,21.853,122.179,21.8Z" transform="translate(-54.647 -11.471)"/><path class="e" d="M177.992,25.946Z" transform="translate(-78.743 -13.225)"/><path class="f" d="M136.956,53.257a1.069,1.069,0,0,0,.367-.144,1.132,1.132,0,0,0,.173-.134c-.542-.123-1.092-.287-1.522.256A3.6,3.6,0,0,0,136.956,53.257Z" transform="translate(-60.966 -24.61)"/><path class="f" d="M138.043,53.3a1.069,1.069,0,0,1-.367.144A1.069,1.069,0,0,0,138.043,53.3Z" transform="translate(-61.686 -24.799)"/><path class="g" d="M100.748,28.657h0c0-.115,0-.226,0-.332C100.746,28.431,100.745,28.541,100.748,28.657Z" transform="translate(-46.062 -14.232)"/><path class="g" d="M126.7,21.129q2.331-.239,4.689-.325Q129.029,20.887,126.7,21.129Z" transform="translate(-57.042 -11.05)"/><path class="g" d="M121.009,22.083h0l-.034.005h0Z" transform="translate(-54.617 -11.591)"/><path class="g" d="M177.992,25.946h0Z" transform="translate(-78.743 -13.225)"/><path class="g" d="M120.971,22.089l.034-.005Z" transform="translate(-54.618 -11.591)"/><path class="h" d="M144.791,23.61c-11.249-3.895-23.033-3.579-31.717-2.391-.386.052-.767.107-1.141.163l-.04.006a83.124,83.124,0,0,0-11.1,2.415c-.637.19-.981.306-.981.306-.5,2.943-.452,5.362.823,10.624C115.7,27.6,137.5,23.639,144.791,23.61Zm-22.353-1a5.506,5.506,0,0,0,.238.9A5.506,5.506,0,0,1,122.438,22.615Z" transform="translate(-45.542 -10.89)"/><path class="i" d="M126.353,50.789A66.767,66.767,0,0,0,115.29,40.571c-19.245-6.321-44.783,1.951-44.783,1.951-1.623,2.294-4.2,3.133-6.581,4.256-.279.132-.8-.215-1.2-.379-2.613-1.087-5.248-2.128-7.82-3.309a3.208,3.208,0,0,0-2.979.039c-2.71,1.326-5.431,2.629-8.14,3.956a8.676,8.676,0,0,1-3.136,1.026c-2.62.2-4.013-1.671-3.111-4.162a8.59,8.59,0,0,1,3.526-3.909c2.4-1.713,4.791-3.458,7.285-5.031a4.07,4.07,0,0,0,1.9-2.943c.619-3.136,1.291-6.261,1.952-9.388.126-.595.107-1.373.648-1.674,2.387-1.327,4.828-2.558,7.372-3.889,0,0,.344-.116.981-.306a1.867,1.867,0,0,1,.6-.262q1.138-.3,2.279-.568c2.721-.648,5.459-1.183,8.219-1.585l.034-.005c.315-.046.629-.1.945-.14.067-.009.134-.015.2-.024,8.684-1.187,20.468-1.5,31.717,2.391C89.446,4.833,72.041.954,53.081,6.166,39.234,9.972,27.263,17.019,18.608,28.942A42.94,42.94,0,0,1,25.719,28c4.881.01,5.557.083,7.026,1.262-1.1.614-2.17,1.2-3.231,1.809-8.943,5.115-16.942,11.34-23.186,19.648-.411.547-.548.869-.054,1.41,1.242,1.363,2.368,2.837,3.661,4.147a53.536,53.536,0,0,0,11.707,9.073c19.8.936,40.876-4.441,40.876-4.441,1.417-1.611,3.495-2.241,5.161-3.475a2.758,2.758,0,0,1,3.1-.206c2.52,1.146,5.09,2.184,7.619,3.31a2.973,2.973,0,0,0,2.787-.012C83.817,59.2,86.5,57.954,89.176,56.7a16.248,16.248,0,0,1,2.567-1.023c1.365-.372,2.782-.388,3.692.9a3.377,3.377,0,0,1-.106,3.838,9.154,9.154,0,0,1-2.8,2.9c-2.632,1.821-5.242,3.678-7.919,5.431a3.579,3.579,0,0,0-1.653,2.5q-.943,4.794-1.994,9.567c-.14.637-.092,1.457-.752,1.818-2.346,1.285-4.727,2.5-7.179,3.793,0,0-24.677,5.515-41.939,2.92a58.153,58.153,0,0,0,42.275,9.622c18.7-2.773,36.695-15.833,41.185-24.468-.861.194-1.627.355-2.388.539a21.6,21.6,0,0,1-10.39.2c-.437-.107-1.1,0-1.115-.693-.011-.5.491-.672.873-.849a48.964,48.964,0,0,0,6.523-3.827c6.843-4.553,13.2-9.656,18.31-16.185A1.933,1.933,0,0,0,126.353,50.789Z" transform="translate(-5.958 -3.896)"/><path class="i" d="M157.714,61.281a40.824,40.824,0,0,0-7.226-4.119c-6.654-2.912-13.526-4.723-20.867-4.237l-4.708.05a1.132,1.132,0,0,1-.173.134,1.069,1.069,0,0,1-.367.144,3.6,3.6,0,0,1-.982-.022,32.258,32.258,0,0,0-10.626,2.332c-1.914.738-3.909,1.269-5.871,1.881-.757.237-.909.584-.229,1.1q3.128,2.352,6.267,4.691S138.469,54.96,157.714,61.281Z" transform="translate(-48.382 -24.606)"/><path class="j" d="M157.714,61.281a40.824,40.824,0,0,0-7.226-4.119c-6.654-2.912-13.526-4.723-20.867-4.237l-4.708.05a1.132,1.132,0,0,1-.173.134,1.069,1.069,0,0,1-.367.144,3.6,3.6,0,0,1-.982-.022,32.258,32.258,0,0,0-10.626,2.332c-1.914.738-3.909,1.269-5.871,1.881-.757.237-.909.584-.229,1.1q3.128,2.352,6.267,4.691S138.469,54.96,157.714,61.281Z" transform="translate(-48.382 -24.606)"/><path class="i" d="M33.145,107.164c5.551,3.145,39.814,4.493,46.45,1.87,1.509-.6-4.836-1.28-6.084-2.215-1.933-1.45,2.1-2.192.51-4.095C74.021,102.723,52.944,108.1,33.145,107.164Z" transform="translate(-17.461 -45.708)"/><path class="k" d="M33.145,107.164c5.551,3.145,40.868,6.287,48.312,1.265a12.13,12.13,0,0,1-2.362-1.4,26.065,26.065,0,0,1-5.073-4.31S52.944,108.1,33.145,107.164Z" transform="translate(-17.461 -45.708)"/><path class="i" d="M89.308,139.383c-.413-1.8.105-3.366-.4-4.855-.025-1.409-.1-2.819-.058-4.226.037-1.258-.332-1.539-1.462-.9a87.651,87.651,0,0,1-21.876,8.364,4.213,4.213,0,0,0-.916.013,73.647,73.647,0,0,1-18.954,1.993,1.094,1.094,0,0,0-1.208.463q1.456,1.08,2.936,2.065C64.631,144.9,89.308,139.383,89.308,139.383Z" transform="translate(-22.236 -56.856)"/><path class="l" d="M89.308,139.383c-.413-1.8.105-3.366-.4-4.855-.025-1.409-.1-2.819-.058-4.226.037-1.258-.332-1.539-1.462-.9a87.651,87.651,0,0,1-21.876,8.364,4.213,4.213,0,0,0-.916.013,73.647,73.647,0,0,1-18.954,1.993,1.094,1.094,0,0,0-1.208.463q1.456,1.08,2.936,2.065C64.631,144.9,89.308,139.383,89.308,139.383Z" transform="translate(-22.236 -56.856)"/></g></g></svg>