<svg xmlns="http://www.w3.org/2000/svg" xmlns:xlink="http://www.w3.org/1999/xlink" width="330.944" height="76.283" viewBox="0 0 330.944 76.283"><defs><style>.a{fill:#274d89;font-family:SavoyeLetPlain, Savoye LET;}.a,.b{font-size:28px;}.b,.i{fill:#2e90d1;}.b{font-family:Quantify;}.c{fill:#9fc5e9;}.d{fill:none;}.e{fill:#1e58a5;}.f{fill:#3391d1;}.g{fill:#fefefe;}.h{fill:url(#a);}.j{fill:url(#b);}.k{fill:url(#c);}.l{fill:url(#d);}</style><linearGradient id="a" y1="0.5" x2="1" y2="0.5" gradientUnits="objectBoundingBox"><stop offset="0.126" stop-color="#0b3f91"/><stop offset="0.298" stop-color="#185eaa"/><stop offset="0.481" stop-color="#2479bf"/><stop offset="0.644" stop-color="#2b8acc"/><stop offset="0.769" stop-color="#2e90d1"/></linearGradient><linearGradient id="b" x1="-0.159" y1="0.5" x2="1.093" y2="0.5" gradientUnits="objectBoundingBox"><stop offset="0.326" stop-color="#0b3f91"/><stop offset="0.424" stop-color="#185eaa"/><stop offset="0.53" stop-color="#2479bf"/><stop offset="0.623" stop-color="#2b8acc"/><stop offset="0.695" stop-color="#2e90d1"/></linearGradient><linearGradient id="c" x1="1.236" y1="0.5" x2="-0.089" y2="0.5" gradientUnits="objectBoundingBox"><stop offset="0.223" stop-color="#0b3f91"/><stop offset="0.294" stop-color="#1352a0"/><stop offset="0.433" stop-color="#2174ba"/><stop offset="0.549" stop-color="#2a88cb"/><stop offset="0.626" stop-color="#2e90d1"/></linearGradient><linearGradient id="d" x1="1.253" y1="0.5" x2="-0.058" y2="0.5" gradientUnits="objectBoundingBox"><stop offset="0.188" stop-color="#0b3f91"/><stop offset="0.299" stop-color="#185eaa"/><stop offset="0.418" stop-color="#2479bf"/><stop offset="0.523" stop-color="#2b8acc"/><stop offset="0.603" stop-color="#2e90d1"/></linearGradient></defs><g transform="translate(-5.958 -3.896)"><text class="a" transform="translate(225.903 66.18)"><tspan x="0" y="0">Viaja protegido</tspan></text><text class="b" transform="translate(102.193 50.337)"><tspan x="0" y="0">Seguro</tspan><tspan class="c" y="0">de</tspan><tspan y="0">viaje</tspan><tspan class="c" y="0">.pe</tspan></text><g transform="translate(5.958 3.896)"><path class="d" d="M121.7,21.842c-.224.03-.447.067-.67.1h0C121.256,21.908,121.477,21.871,121.7,21.842Z" transform="translate(-73.927 -14.496)"/><path class="d" d="M112.556,22.093c-1.958.285-3.9.665-5.832,1.124,1.93-.46,3.873-.839,5.831-1.124Z" transform="translate(-65.477 -14.644)"/><path class="e" d="M103.774,23.217q-.81.193-1.617.4a1.324,1.324,0,0,0-.427.186,58.978,58.978,0,0,1,7.876-1.713C107.646,22.378,105.7,22.758,103.774,23.217Z" transform="translate(-62.526 -14.644)"/><path class="e" d="M121.847,21.8l-.142.017c-.223.029-.445.066-.667.1C121.3,21.877,121.573,21.838,121.847,21.8Z" transform="translate(-73.932 -14.472)"/><path class="e" d="M177.992,25.946Z" transform="translate(-107.572 -16.92)"/><path class="f" d="M136.671,53.14a.759.759,0,0,0,.26-.1.8.8,0,0,0,.123-.1c-.385-.087-.774-.2-1.08.182A2.557,2.557,0,0,0,136.671,53.14Z" transform="translate(-82.754 -32.815)"/><path class="f" d="M137.936,53.3a.758.758,0,0,1-.26.1A.758.758,0,0,0,137.936,53.3Z" transform="translate(-83.759 -33.078)"/><path class="g" d="M100.747,28.56h0c0-.082,0-.16,0-.235C100.746,28.4,100.745,28.479,100.747,28.56Z" transform="translate(-61.946 -18.325)"/><path class="g" d="M126.7,21.034q1.654-.169,3.327-.23Q128.353,20.863,126.7,21.034Z" transform="translate(-77.275 -13.883)"/><path class="g" d="M121,22.083h0l-.024,0h0Z" transform="translate(-73.891 -14.638)"/><path class="g" d="M177.992,25.946h0Z" transform="translate(-107.572 -16.92)"/><path class="g" d="M120.971,22.088l.024,0Z" transform="translate(-73.892 -14.639)"/><path class="h" d="M131.64,22.685c-7.982-2.763-16.343-2.539-22.5-1.7-.274.037-.544.076-.809.115l-.028,0a58.979,58.979,0,0,0-7.876,1.713c-.452.135-.7.217-.7.217-.353,2.088-.321,3.8.584,7.538,10.691-5.061,26.16-7.871,31.33-7.891Zm-15.86-.706a3.907,3.907,0,0,0,.169.638A3.907,3.907,0,0,1,115.78,21.979Z" transform="translate(-61.22 -13.659)"/><path class="i" d="M91.381,37.168a47.373,47.373,0,0,0-7.849-7.25C69.878,25.433,51.758,31.3,51.758,31.3c-1.151,1.628-2.983,2.223-4.669,3.02-.2.094-.571-.152-.851-.269-1.854-.772-3.724-1.51-5.548-2.348a2.276,2.276,0,0,0-2.114.027c-1.923.941-3.853,1.865-5.775,2.807a6.156,6.156,0,0,1-2.225.728c-1.859.143-2.847-1.186-2.208-2.953a6.1,6.1,0,0,1,2.5-2.774c1.705-1.215,3.4-2.454,5.169-3.569a2.888,2.888,0,0,0,1.35-2.088c.439-2.225.916-4.442,1.385-6.661.089-.422.076-.974.46-1.188,1.694-.941,3.426-1.815,5.231-2.759,0,0,.244-.082.7-.217a1.325,1.325,0,0,1,.427-.186q.807-.209,1.617-.4c1.931-.46,3.874-.84,5.832-1.124l.024,0c.224-.032.447-.069.67-.1l.142-.017c6.161-.842,14.523-1.067,22.5,1.7C65.195,4.561,52.846,1.809,39.393,5.506c-9.825,2.7-18.319,7.7-24.46,16.161A30.467,30.467,0,0,1,19.979,21c3.463.007,3.943.059,4.985.9-.779.436-1.54.853-2.293,1.284A52.8,52.8,0,0,0,6.221,37.12c-.291.388-.389.616-.038,1,.881.967,1.68,2.013,2.6,2.942A37.985,37.985,0,0,0,17.087,47.5c14.048.664,29-3.151,29-3.151,1.006-1.143,2.48-1.59,3.662-2.465a1.957,1.957,0,0,1,2.2-.146c1.788.813,3.611,1.549,5.406,2.349a2.11,2.11,0,0,0,1.978-.008C61.2,43.133,63.1,42.252,65,41.363a11.529,11.529,0,0,1,1.822-.726,2.216,2.216,0,0,1,2.62.637A2.4,2.4,0,0,1,69.369,44a6.5,6.5,0,0,1-1.987,2.054c-1.868,1.292-3.719,2.61-5.619,3.854a2.54,2.54,0,0,0-1.173,1.776q-.669,3.4-1.415,6.788c-.1.452-.065,1.034-.534,1.29-1.664.912-3.354,1.777-5.094,2.691,0,0-17.509,3.913-29.757,2.072a41.261,41.261,0,0,0,30,6.827c13.266-1.968,26.036-11.234,29.222-17.36-.611.138-1.155.252-1.694.383a15.328,15.328,0,0,1-7.372.142c-.31-.076-.78,0-.791-.492-.008-.355.348-.477.619-.6A34.741,34.741,0,0,0,78.4,50.706,54.122,54.122,0,0,0,91.389,39.222,1.372,1.372,0,0,0,91.381,37.168Z" transform="translate(-5.958 -3.896)"/><path class="i" d="M142.759,58.831a28.964,28.964,0,0,0-5.127-2.922A31.391,31.391,0,0,0,122.826,52.9l-3.341.035a.8.8,0,0,1-.123.1.758.758,0,0,1-.26.1,2.557,2.557,0,0,1-.7-.016,22.888,22.888,0,0,0-7.539,1.655c-1.358.524-2.774.9-4.166,1.335-.537.168-.645.415-.163.777q2.22,1.669,4.447,3.328S129.1,54.346,142.759,58.831Z" transform="translate(-65.185 -32.809)"/><path class="j" d="M142.759,58.831a28.964,28.964,0,0,0-5.127-2.922A31.391,31.391,0,0,0,122.826,52.9l-3.341.035a.8.8,0,0,1-.123.1.758.758,0,0,1-.26.1,2.557,2.557,0,0,1-.7-.016,22.888,22.888,0,0,0-7.539,1.655c-1.358.524-2.774.9-4.166,1.335-.537.168-.645.415-.163.777q2.22,1.669,4.447,3.328S129.1,54.346,142.759,58.831Z" transform="translate(-65.185 -32.809)"/><path class="i" d="M33.145,105.874c3.938,2.232,28.249,3.188,32.957,1.327,1.071-.424-3.431-.908-4.316-1.572-1.372-1.029,1.489-1.555.362-2.905C62.148,102.723,47.193,106.538,33.145,105.874Z" transform="translate(-22.017 -62.269)"/><path class="k" d="M33.145,105.874c3.938,2.232,29,4.461,34.278.9a8.607,8.607,0,0,1-1.676-.991,18.493,18.493,0,0,1-3.6-3.058S47.193,106.538,33.145,105.874Z" transform="translate(-22.017 -62.269)"/><path class="i" d="M76.273,136.388c-.293-1.274.075-2.388-.284-3.445-.018-1-.071-2-.041-3,.027-.892-.236-1.092-1.038-.636a62.191,62.191,0,0,1-15.522,5.934,2.988,2.988,0,0,0-.65.009,52.254,52.254,0,0,1-13.448,1.414.777.777,0,0,0-.857.328q1.033.766,2.083,1.465C58.764,140.3,76.273,136.388,76.273,136.388Z" transform="translate(-28.684 -77.833)"/><path class="l" d="M76.273,136.388c-.293-1.274.075-2.388-.284-3.445-.018-1-.071-2-.041-3,.027-.892-.236-1.092-1.038-.636a62.191,62.191,0,0,1-15.522,5.934,2.988,2.988,0,0,0-.65.009,52.254,52.254,0,0,1-13.448,1.414.777.777,0,0,0-.857.328q1.033.766,2.083,1.465C58.764,140.3,76.273,136.388,76.273,136.388Z" transform="translate(-28.684 -77.833)"/></g></g></svg>