<svg xmlns="http://www.w3.org/2000/svg" width="115.683" height="86.332" viewBox="0 0 115.683 86.332"><defs><style>.a{fill:#fff;}</style></defs><g transform="translate(-35.052 -1213.021)"><g transform="translate(35.052 1213.021)"><path class="a" d="M281.269,1280.6c-6.5,0-12.993-.06-19.488.033a2.606,2.606,0,0,1-2.685-3.489c1.5-4.935,2.808-9.93,4.322-14.861a71.22,71.22,0,0,0,2.379-11.913c.687-5.346,2.748-9.942,7.433-12.985a14.845,14.845,0,0,1,9.822-2.192c7.1.687,11.658,6.047,13.168,11.89.7,2.689.893,5.457,1.323,8.188.654,4.155,2.107,8.095,3.2,12.131.894,3.3,1.883,6.58,2.811,9.874.554,1.965-.5,3.321-2.56,3.322Q291.132,1280.6,281.269,1280.6Z" transform="translate(-223.481 -1231.604)"/><path class="a" d="M35.052,1241.152a45.391,45.391,0,0,1,9.675-27.736c.33-.429.539-.56,1.019-.134,1.081.959,2.219,1.857,3.364,2.74.41.317.441.521.113.936a39.48,39.48,0,0,0-8.376,26.918,39.769,39.769,0,0,0,5.964,18.608c.239.386.342.63-.158.932-1.284.775-2.539,1.6-3.781,2.445-.382.259-.543.215-.786-.172a46.029,46.029,0,0,1-5.64-13.235A48.048,48.048,0,0,1,35.052,1241.152Z" transform="translate(-35.052 -1213.021)"/><path class="a" d="M681.87,1231c-1.212-4.437-4.595-10.062-7.188-13.851-.528-.845,2.583-2.985,3.623-3.873.413-.353.631-.318.965.114a46.517,46.517,0,0,1,6.721,11.921,44.491,44.491,0,0,1,2.937,17.745,45.581,45.581,0,0,1-6.882,22.494c-.289.47-.483.63-1.007.261-1.184-.833-2.408-1.612-3.642-2.37-.448-.276-.473-.485-.2-.92a39.287,39.287,0,0,0,5.037-12.124,37.628,37.628,0,0,0,1.016-8.94A75.176,75.176,0,0,0,681.87,1231Z" transform="translate(-573.28 -1213.037)"/><path class="a" d="M356.654,1628.43a12.423,12.423,0,0,1-1.373,6.1,9.054,9.054,0,0,1-4.846,4.215c-4.318,1.653-9.488.5-12.212-2.719a10.176,10.176,0,0,1-2.281-5.708,13.818,13.818,0,0,1,1-7.586c1.925-3.965,5.262-5.558,9.537-5.471,3.572.073,6.53,1.347,8.517,4.438A11.974,11.974,0,0,1,356.654,1628.43Zm-4.475-.261a12.535,12.535,0,0,0-.454-3.244,5.748,5.748,0,0,0-10.492-1.013,9.992,9.992,0,0,0,.054,8.864,5.2,5.2,0,0,0,5.122,2.943,5.344,5.344,0,0,0,4.937-3.13A9.759,9.759,0,0,0,352.179,1628.169Z" transform="translate(-288.163 -1553.204)"/><path class="a" d="M112.672,1297.885c-.278.2-.429.109-.612-.18a30.877,30.877,0,0,1-2.1-3.887,34.179,34.179,0,0,1,3.93-35.025c.427-.568.694-.591,1.218-.137,1.051.912,2.171,1.744,3.244,2.632.159.131.48.208.392.525-.079.285-5.425,9.708-5.971,13.942a28.138,28.138,0,0,0,3.625,18.1c.534.925.291,1.4-.668,1.867-.576.279-1.039.817-1.616,1.162C113.843,1297.051,112.806,1297.788,112.672,1297.885Z" transform="translate(-95.465 -1251.159)"/><path class="a" d="M622.3,1257.834c.193-.275.349.174.472.323a31.982,31.982,0,0,1,6.995,16.5,33.913,33.913,0,0,1-4.677,22.163c-.418.708-.717.76-1.357.3-.957-.7-1.988-1.289-2.986-1.927-.86-.55-.918-.733-.381-1.641a26.646,26.646,0,0,0,2.27-4.767,28.032,28.032,0,0,0-2.339-24.336c-.188-.324-2.33-3.233-2.174-3.273A48.086,48.086,0,0,0,622.3,1257.834Z" transform="translate(-525.728 -1250.66)"/><path class="a" d="M210.709,1619.558a1.119,1.119,0,0,1,.52-.567,14.682,14.682,0,0,1,2.507-1.439,12.417,12.417,0,0,1,7.927.316,5.682,5.682,0,0,1,3.744,4.882c.05.466-.068.609-.531.6-1.082-.025-2.165-.019-3.248,0a.542.542,0,0,1-.624-.45,2.836,2.836,0,0,0-2.232-2.019,5.756,5.756,0,0,0-4.166.363,1.638,1.638,0,0,0-.068,3.054,12.36,12.36,0,0,0,3.359,1.146,29.473,29.473,0,0,1,4.089,1.224,5.889,5.889,0,0,1,4.067,6.041,6.068,6.068,0,0,1-4.213,5.9,12.314,12.314,0,0,1-8.911-.162,6.961,6.961,0,0,1-4.241-5.609c-.086-.488.081-.6.526-.587,1.029.021,2.06.014,3.089,0,.324,0,.546.061.654.414a4.091,4.091,0,0,0,3.164,2.783,6.181,6.181,0,0,0,3.44-.124,3.154,3.154,0,0,0,1.74-1.3,2.1,2.1,0,0,0-.786-3.217,18.763,18.763,0,0,0-4-1.222,19.6,19.6,0,0,1-3.738-1.273,5.749,5.749,0,0,1-3.257-6.459C209.556,1621.643,210.6,1619.974,210.709,1619.558Z" transform="translate(-181.157 -1553.036)"/><path class="a" d="M499.316,1633.551a5.9,5.9,0,0,1-3.555,4.651,12.139,12.139,0,0,1-9.637.011,6.936,6.936,0,0,1-4.091-5.466c-.084-.441-.024-.689.531-.668,1.028.039,2.058.013,3.088.01.276,0,.5.018.619.346.827,2.268,2.6,3.047,4.851,3a8.277,8.277,0,0,0,2.107-.325,5.984,5.984,0,0,0,1.674-1.4c.367-.312.1-.665.138-1.015a2.091,2.091,0,0,0-1.6-2.253,29.621,29.621,0,0,0-3.651-1.037,17.914,17.914,0,0,1-3.59-1.216,5.565,5.565,0,0,1-3.443-5.473,5.372,5.372,0,0,1,3.886-5.145,11.681,11.681,0,0,1,8.438.166,5.819,5.819,0,0,1,3.675,4.616c.1.574.029.882-.684.84-1.026-.06-2.058-.024-3.087-.012a.551.551,0,0,1-.652-.5,2.571,2.571,0,0,0-1.669-1.779,5.911,5.911,0,0,0-4.552.081,1.69,1.69,0,0,0-1.213,1.6,1.776,1.776,0,0,0,1.152,1.654,23.289,23.289,0,0,0,4.456,1.358,17.693,17.693,0,0,1,3.649,1.281,5.669,5.669,0,0,1,2.366,2.155A9.921,9.921,0,0,1,499.316,1633.551Z" transform="translate(-411.182 -1552.872)"/><path class="a" d="M181.754,1328.989c-.351.056-.683-.736-.791-.952q-6.308-12.633,1.715-24.255c.568-.826.6-.81,1.38-.182,1.088.871,2.171,1.748,3.258,2.62.271.217.4.36.106.74a16.7,16.7,0,0,0-3.484,9.332,16.433,16.433,0,0,0,2.316,9.528c.355.6.319.915-.293,1.211a5.9,5.9,0,0,0-.864.552A19.918,19.918,0,0,1,181.754,1328.989Z" transform="translate(-155.511 -1288.864)"/><path class="a" d="M562.425,1307.217a3.857,3.857,0,0,1,1.112-1.04c.662-.561,1.34-1.1,2.02-1.641.256-.2,1.291-.9,1.582-.665a12.309,12.309,0,0,1,1.786,2.856,22.312,22.312,0,0,1,2.578,7.163,22.542,22.542,0,0,1-2.191,14.344c-.329.652-.548,1.608-1.161,1.8-.572.176-1.183-.623-1.777-.991-.782-.486-1.536-1.02-2.335-1.476-.532-.3-.575-.579-.263-1.1a16.559,16.559,0,0,0,2.376-8.724,17.027,17.027,0,0,0-2.664-9.045C563.343,1308.461,562.932,1308.011,562.425,1307.217Z" transform="translate(-478.861 -1289.435)"/><path class="a" d="M368.911,1534.006c1.714,0,3.428.023,5.14-.012.592-.012.707.21.654.74a5.914,5.914,0,0,1-5.6,5.175,5.852,5.852,0,0,1-6-4.683,3.115,3.115,0,0,0-.069-.308c-.192-.651-.052-.953.727-.928C365.482,1534.043,367.2,1534.006,368.911,1534.006Z" transform="translate(-311.007 -1483.13)"/></g></g></svg>